TITLE ""
FILE "1Q_t_1020-1029.mp3" MP3
  TRACK 01 AUDIO
    TITLE "1Q_t_1020-1029_01"
    INDEX 01 00:00:00
  TRACK 02 AUDIO
    TITLE "1Q_t_1020-1029_02"
    INDEX 01 00:01:22
  TRACK 03 AUDIO
    TITLE "1Q_t_1020-1029_03"
    INDEX 01 00:01:27
  TRACK 04 AUDIO
    TITLE "1Q_t_1020-1029_04"
    INDEX 01 00:04:36
  TRACK 05 AUDIO
    TITLE "1Q_t_1020-1029_05"
    INDEX 01 00:04:41
  TRACK 06 AUDIO
    TITLE "1Q_t_1020-1029_06"
    INDEX 01 00:11:20
  TRACK 07 AUDIO
    TITLE "1Q_t_1020-1029_07"
    INDEX 01 00:11:65
  TRACK 08 AUDIO
    TITLE "1Q_t_1020-1029_08"
    INDEX 01 00:12:72
  TRACK 09 AUDIO
    TITLE "1Q_t_1020-1029_09"
    INDEX 01 00:13:07
  TRACK 10 AUDIO
    TITLE "1Q_t_1020-1029_10"
    INDEX 01 00:15:10
  TRACK 11 AUDIO
    TITLE "1Q_t_1020-1029_11"
    INDEX 01 00:21:10
  TRACK 12 AUDIO
    TITLE "1Q_t_1020-1029_12"
    INDEX 01 00:21:58
  TRACK 13 AUDIO
    TITLE "1Q_t_1020-1029_13"
    INDEX 01 00:23:03
  TRACK 14 AUDIO
    TITLE "1Q_t_1020-1029_14"
    INDEX 01 00:23:11
  TRACK 15 AUDIO
    TITLE "1Q_t_1020-1029_15"
    INDEX 01 00:26:35
  TRACK 16 AUDIO
    TITLE "1Q_t_1020-1029_16"
    INDEX 01 00:26:43
  TRACK 17 AUDIO
    TITLE "1Q_t_1020-1029_17"
    INDEX 01 00:34:07
  TRACK 18 AUDIO
    TITLE "1Q_t_1020-1029_18"
    INDEX 01 00:34:54
  TRACK 19 AUDIO
    TITLE "1Q_t_1020-1029_19"
    INDEX 01 00:35:67
  TRACK 20 AUDIO
    TITLE "1Q_t_1020-1029_20"
    INDEX 01 00:36:04
  TRACK 21 AUDIO
    TITLE "1Q_t_1020-1029_21"
    INDEX 01 00:37:27
  TRACK 22 AUDIO
    TITLE "1Q_t_1020-1029_22"
    INDEX 01 00:37:35
  TRACK 23 AUDIO
    TITLE "1Q_t_1020-1029_23"
    INDEX 01 00:42:22
  TRACK 24 AUDIO
    TITLE "1Q_t_1020-1029_24"
    INDEX 01 00:42:71
  TRACK 25 AUDIO
    TITLE "1Q_t_1020-1029_25"
    INDEX 01 00:43:71
  TRACK 26 AUDIO
    TITLE "1Q_t_1020-1029_26"
    INDEX 01 00:44:04
  TRACK 27 AUDIO
    TITLE "1Q_t_1020-1029_27"
    INDEX 01 00:45:60
  TRACK 28 AUDIO
    TITLE "1Q_t_1020-1029_28"
    INDEX 01 00:45:66
  TRACK 29 AUDIO
    TITLE "1Q_t_1020-1029_29"
    INDEX 01 00:51:55
  TRACK 30 AUDIO
    TITLE "1Q_t_1020-1029_30"
    INDEX 01 00:52:27
  TRACK 31 AUDIO
    TITLE "1Q_t_1020-1029_31"
    INDEX 01 00:53:40
  TRACK 32 AUDIO
    TITLE "1Q_t_1020-1029_32"
    INDEX 01 00:53:48
  TRACK 33 AUDIO
    TITLE "1Q_t_1020-1029_33"
    INDEX 01 00:54:49
  TRACK 34 AUDIO
    TITLE "1Q_t_1020-1029_34"
    INDEX 01 00:54:55
  TRACK 35 AUDIO
    TITLE "1Q_t_1020-1029_35"
    INDEX 01 00:59:03
  TRACK 36 AUDIO
    TITLE "1Q_t_1020-1029_36"
    INDEX 01 00:59:48
  TRACK 37 AUDIO
    TITLE "1Q_t_1020-1029_37"
    INDEX 01 01:00:54
  TRACK 38 AUDIO
    TITLE "1Q_t_1020-1029_38"
    INDEX 01 01:00:63
  TRACK 39 AUDIO
    TITLE "1Q_t_1020-1029_39"
    INDEX 01 01:02:70
  TRACK 40 AUDIO
    TITLE "1Q_t_1020-1029_40"
    INDEX 01 01:03:01
  TRACK 41 AUDIO
    TITLE "1Q_t_1020-1029_41"
    INDEX 01 01:07:13
  TRACK 42 AUDIO
    TITLE "1Q_t_1020-1029_42"
    INDEX 01 01:07:58
  TRACK 43 AUDIO
    TITLE "1Q_t_1020-1029_43"
    INDEX 01 01:09:10
  TRACK 44 AUDIO
    TITLE "1Q_t_1020-1029_44"
    INDEX 01 01:09:15
  TRACK 45 AUDIO
    TITLE "1Q_t_1020-1029_45"
    INDEX 01 01:12:25
  TRACK 46 AUDIO
    TITLE "1Q_t_1020-1029_46"
    INDEX 01 01:12:33
  TRACK 47 AUDIO
    TITLE "1Q_t_1020-1029_47"
    INDEX 01 01:17:21
  TRACK 48 AUDIO
    TITLE "1Q_t_1020-1029_48"
    INDEX 01 01:17:66
  TRACK 49 AUDIO
    TITLE "1Q_t_1020-1029_49"
    INDEX 01 01:19:02
  TRACK 50 AUDIO
    TITLE "1Q_t_1020-1029_50"
    INDEX 01 01:19:12
  TRACK 51 AUDIO
    TITLE "1Q_t_1020-1029_51"
    INDEX 01 01:21:64
  TRACK 52 AUDIO
    TITLE "1Q_t_1020-1029_52"
    INDEX 01 01:21:70
  TRACK 53 AUDIO
    TITLE "1Q_t_1020-1029_53"
    INDEX 01 01:28:01
  TRACK 54 AUDIO
    TITLE "1Q_t_1020-1029_54"
    INDEX 01 01:28:46
  TRACK 55 AUDIO
    TITLE "1Q_t_1020-1029_55"
    INDEX 01 01:29:67
  TRACK 56 AUDIO
    TITLE "1Q_t_1020-1029_56"
    INDEX 01 01:29:75
  TRACK 57 AUDIO
    TITLE "1Q_t_1020-1029_57"
    INDEX 01 01:32:01
  TRACK 58 AUDIO
    TITLE "1Q_t_1020-1029_58"
    INDEX 01 01:32:07
  TRACK 59 AUDIO
    TITLE "1Q_t_1020-1029_59"
    INDEX 01 01:36:01
